
<!-- Copyright (c) 2007-2009 Xilinx, Inc.  All rights reserved.
     created by Srinivasa Murthy Attili
     Date: 2-Feb-2012
-->

<svg version="1.1"
     baseProfile="full"
     width="300px" height="205px"
     viewBox="0 0 300 205" 
     preserveAspectRatio="none"
     xmlns="http://www.w3.org/2000/svg"
     xmlns:xlink="http://www.w3.org/1999/xlink">

<!-- DRAW X-AXIS and Y-AXIS -->
  <!-- draw y-axis, and arrow on the tip -->
  <line x1="50" y1="0" x2="50" y2="300" stroke="#000000" stroke-width="2px"/>
  <line x1="55" y1="5" x2="50" y2="0"   stroke="#000000" stroke-width="2px"/>
  <line x1="45" y1="5" x2="50" y2="0"   stroke="#000000" stroke-width="2px"/>
    
  <!-- draw x-axis, and arrow on the tip -->
  <line x1="50"  y1="200" x2="300" y2="200" stroke="#000000" stroke-width="2px"/>
  <line x1="295" y1="195" x2="300" y2="200" stroke="#000000" stroke-width="2px"/>
  <line x1="295" y1="205" x2="300" y2="200" stroke="#000000" stroke-width="2px"/>

<!-- Draw Segments (refer above notes) -->
  <line x1="51" y1="200.00" x2="298" y2="200.95" stroke="#CCCCCC" stroke-width="2px"/>
  <line x1="51" y1="181.81" x2="300" y2="181.81" stroke="#CCCCCC" stroke-width="2px"/>
  <line x1="51" y1="163.63" x2="300" y2="163.63" stroke="#CCCCCC" stroke-width="2px"/>
  <line x1="51" y1="145.45" x2="300" y2="145.45" stroke="#CCCCCC" stroke-width="2px"/>
  <line x1="51" y1="127.27" x2="300" y2="127.27" stroke="#CCCCCC" stroke-width="2px"/>
  <line x1="51" y1="109.09" x2="300" y2="109.09" stroke="#CCCCCC" stroke-width="2px"/>
  <line x1="51" y1="90.90"  x2="300" y2="90.90"  stroke="#CCCCCC" stroke-width="2px"/>
  <line x1="51" y1="72.72"  x2="300" y2="72.72"  stroke="#CCCCCC" stroke-width="2px"/>
  <line x1="51" y1="54.54"  x2="300" y2="54.54"  stroke="#CCCCCC" stroke-width="2px"/>
  <line x1="51" y1="36.36"  x2="300" y2="36.36"  stroke="#CCCCCC" stroke-width="2px"/>
  <line x1="51" y1="18.18"  x2="300" y2="18.18"  stroke="#CCCCCC" stroke-width="2px"/>
  <line x1="51" y1="1.00"   x2="300" y2="1.00"   stroke="#CCCCCC" stroke-width="2px"/>

<!-- MARKERS -->
  <!-- markers on y-axis for scale -->
  <line x1="45" y1="200.00" x2="50" y2="200.00" stroke="#000000" stroke-width="2px"/>
  <line x1="45" y1="181.81" x2="50" y2="181.81" stroke="#000000" stroke-width="2px"/>
  <line x1="45" y1="163.63" x2="50" y2="163.63" stroke="#000000" stroke-width="2px"/>
  <line x1="45" y1="145.45" x2="50" y2="145.45" stroke="#000000" stroke-width="2px"/>
  <line x1="45" y1="127.27" x2="50" y2="127.27" stroke="#000000" stroke-width="2px"/>
  <line x1="45" y1="109.09" x2="50" y2="109.09" stroke="#000000" stroke-width="2px"/>
  <line x1="45" y1="90.90"  x2="50" y2="90.90"  stroke="#000000" stroke-width="2px"/>
  <line x1="45" y1="72.72"  x2="50" y2="72.72"  stroke="#000000" stroke-width="2px"/>
  <line x1="45" y1="54.54"  x2="50" y2="54.54"  stroke="#000000" stroke-width="2px"/>
  <line x1="45" y1="36.36"  x2="50" y2="36.36"  stroke="#000000" stroke-width="2px"/>
  <line x1="45" y1="18.18"  x2="50" y2="18.18"  stroke="#000000" stroke-width="2px"/>
  <line x1="45" y1="1.00"   x2="50" y2="1.00"   stroke="#000000" stroke-width="2px"/>

  <!-- Graph scale on y-axis -->
  <text x="30" y="205.00" font-family="Arial" font-size="10px" stroke="#0000ff" fill="#0000ff">20</text>
  <text x="30" y="186.81" font-family="Arial" font-size="10px" stroke="#0000ff" fill="#0000ff">30</text>
  <text x="30" y="168.63" font-family="Arial" font-size="10px" stroke="#0000ff" fill="#0000ff">40</text>
  <text x="30" y="149.45" font-family="Arial" font-size="10px" stroke="#0000ff" fill="#0000ff">50</text>
  <text x="30" y="132.27" font-family="Arial" font-size="10px" stroke="#0000ff" fill="#0000ff">60</text>
  <text x="30" y="114.09" font-family="Arial" font-size="10px" stroke="#0000ff" fill="#0000ff">70</text>
  <text x="30" y="95.90"  font-family="Arial" font-size="10px" stroke="#0000ff" fill="#0000ff">80</text>
  <text x="30" y="77.72"  font-family="Arial" font-size="10px" stroke="#0000ff" fill="#0000ff">90</text>
  <text x="30" y="59.54"  font-family="Arial" font-size="10px" stroke="#0000ff" fill="#0000ff">100</text>
  <text x="30" y="41.36"  font-family="Arial" font-size="10px" stroke="#0000ff" fill="#0000ff">110</text>
  <text x="30" y="23.18"  font-family="Arial" font-size="10px" stroke="#0000ff" fill="#0000ff">120</text>
  <text x="30" y="9.00"   font-family="Arial" font-size="10px" stroke="#0000ff" fill="#0000ff">130</text>

<!-- Variables that hold plot data -->
  <polyline id="CDMA0Line_temp" points="" style="fill:none; stroke:#FF0000; stroke-width:2px; opacity:.8"/>

</svg>

