
<!-- Copyright (c) 2007-2009 Xilinx, Inc.  All rights reserved.
     created by Srinivasa Murthy Attili
     Date: 2-Feb-2012
-->

<svg version="1.1"
     baseProfile="full"
     width="300px" height="155px"
     viewBox="0 0 300 155" 
     preserveAspectRatio="none"
     xmlns="http://www.w3.org/2000/svg"
     xmlns:xlink="http://www.w3.org/1999/xlink">

<!-- DRAW X-AXIS and Y-AXIS -->
  <!-- draw y-axis, and arrow on the tip -->
  <line x1="50" y1="0" x2="50" y2="150" stroke="#000000" stroke-width="2px"/>
  <line x1="55" y1="5" x2="50" y2="0"   stroke="#000000" stroke-width="2px"/>
  <line x1="45" y1="5" x2="50" y2="0"   stroke="#000000" stroke-width="2px"/>
    
  <!-- draw x-axis, and arrow on the tip -->
  <line x1="50"  y1="150" x2="300" y2="150" stroke="#000000" stroke-width="2px"/>
  <line x1="295" y1="145" x2="300" y2="150" stroke="#000000" stroke-width="2px"/>
  <line x1="295" y1="155" x2="300" y2="150" stroke="#000000" stroke-width="2px"/>

<!-- Draw Segments (refer above notes) -->
  <line x1="51" y1="150.00" x2="298" y2="150.00" stroke="#CCCCCC" stroke-width="2px"/>
  <line x1="51" y1="128.57" x2="300" y2="128.57" stroke="#CCCCCC" stroke-width="2px"/>
  <line x1="51" y1="107.14" x2="300" y2="107.14" stroke="#CCCCCC" stroke-width="2px"/>
  <line x1="51" y1="85.71"  x2="300" y2="85.71"  stroke="#CCCCCC" stroke-width="2px"/>
  <line x1="51" y1="64.28"  x2="300" y2="64.28"  stroke="#CCCCCC" stroke-width="2px"/>
  <line x1="51" y1="42.85"  x2="300" y2="42.85"  stroke="#CCCCCC" stroke-width="2px"/>
  <line x1="51" y1="21.42"  x2="300" y2="21.42"  stroke="#CCCCCC" stroke-width="2px"/>

<!-- MARKERS -->
  <!-- markers on y-axis for scale -->
  <line x1="45" y1="150.00" x2="50" y2="150.00" stroke="#000000" stroke-width="2px"/>
  <line x1="45" y1="128.57" x2="50" y2="128.57" stroke="#000000" stroke-width="2px"/>
  <line x1="45" y1="107.14" x2="50" y2="107.14" stroke="#000000" stroke-width="2px"/>
  <line x1="45" y1="85.71"  x2="50" y2="85.71"  stroke="#000000" stroke-width="2px"/>
  <line x1="45" y1="64.28"  x2="50" y2="64.28"  stroke="#000000" stroke-width="2px"/>
  <line x1="45" y1="42.85"  x2="50" y2="42.85"  stroke="#000000" stroke-width="2px"/>
  <line x1="45" y1="21.42"  x2="50" y2="21.42"  stroke="#000000" stroke-width="2px"/>

  <!-- Graph scale on y-axis -->
  <text x="30" y="155.00" font-family="Arial" font-size="10px" stroke="#0000ff" fill="#0000ff"> 0</text>
  <text x="30" y="132.57" font-family="Arial" font-size="10px" stroke="#0000ff" fill="#0000ff"> 1</text>
  <text x="30" y="112.14" font-family="Arial" font-size="10px" stroke="#0000ff" fill="#0000ff"> 2</text>
  <text x="30" y="90.71"  font-family="Arial" font-size="10px" stroke="#0000ff" fill="#0000ff"> 3</text>
  <text x="30" y="69.28"  font-family="Arial" font-size="10px" stroke="#0000ff" fill="#0000ff"> 4</text>
  <text x="30" y="47.85"  font-family="Arial" font-size="10px" stroke="#0000ff" fill="#0000ff"> 5</text>
  <text x="30" y="26.42"  font-family="Arial" font-size="10px" stroke="#0000ff" fill="#0000ff"> 6</text>

<!-- Variables that hold plot data -->
  <polyline id="CDMA0Line_vint" points="" style="fill:none; stroke:#FF0000; stroke-width:2px; opacity:.8"/>
  <polyline id="CDMA0Line_vaux" points="" style="fill:none; stroke:#0000FF; stroke-width:2px; opacity:.8"/>

</svg>

