
<!-- Copyright (c) 2007-2009 Xilinx, Inc.  All rights reserved.
     created by Srinivasa Murthy Attili
     Date: 2-Feb-2012
-->

<svg version="1.1"
     baseProfile="full"
     width="500px" height="600px"
     viewBox="0 0 600 600" 
     preserveAspectRatio="none"
     xmlns="http://www.w3.org/2000/svg"
     xmlns:xlink="http://www.w3.org/1999/xlink">

<!-- 
  G R A P H    A R E A:
  the graph area is: 500pixels(x-axis) x 500pixels (y-axis)
  the graph plot area: 400pixels(x-axis) x 400pixels (y-axis)
    on x-axis, 50px on left and 50px on right  are left blank
    on y-axis, 50px on top  and 50px on bottom are left blank

  S E G M E N T   C A L C U L A T I O N:
  we have 24 horizontal segments (0, 1, 2, 3, ..... 22)
  of these, lowest segment (0) is the x-axis itself (origin).
  hence we need to divide the graph area into 11 segments.

  Graph box size is: 600 x 600 (see above code "viewBox")
  Actual graph plot on y-axis is 500 pixels (left 50px above, 50px below)

  1st segment =  ((500/1)*1) + 50   [segment at blank 50px itself is first)
   = 50.00  (51, 50.00) to (450, 50.00)

  2nd segment =  ((500/23)*1) + 50  [draw the segment line above blank 50px)
   = 21.73+50 = 71.73  (51, 95.45) to (450, 95.45)

  3rd segment = ((500/23)*2) + 50  [draw the segment line above blank 50px)
   = 43.47+50 = 93.47  (51, 140.90) to (450, 140.90)

  4th segment = ((500/11)*3) + 50  [draw the segment line above blank 50px)
   = 136.35+50 = 186.35  (51, 186.35) to (450, 186.35)

  5th segment = ((500/11)*4) + 50  [draw the segment line above blank 50px)
   = 181.80+50 = 231.80  (51, 231.80) to (450, 231.80)

   6th segment = ((500/11)*5) + 50  [draw the segment line above blank 50px)
   = 227.25+50 = 277.25  (51, 277.25) to (450, 277.25)

   7th segment = ((500/11)*6) + 50  [draw the segment line above blank 50px)
   = 272.70+50 = 322.70  (51, 322.70) to (450, 322.70)

   8th segment = ((500/11)*7) + 50  [draw the segment line above blank 50px)
   = 318.15+50 = 368.15  (51, 368.15) to (450, 368.15)

   9th segment = ((500/11)*8) + 50  [draw the segment line above blank 50px)
   = 363.60+50 = 413.60  (51, 413.60) to (450, 413.60)

   10th segment = ((500/11)*9) + 50  [draw the segment line above blank 50px)
   = 409.05+50 = 459.05  (51, 459.05) to (450, 459.05)

   11th segment = ((500/11)*10) + 50  [draw the segment line above blank 50px)
   = 454.50+50 = 504.50  (51, 504.50) to (450, 504.50)

   12th segment = ((500/11)*11) + 50  [draw the segment line above blank 50px)
   = 499.95+50 = 549.95  (51, 549.95) to (450, 549.95)


-->

<!-- DRAW X-AXIS and Y-AXIS -->
  <!-- draw y-axis, and arrow on the tip -->
  <line x1="50" y1="10" x2="50" y2="550" stroke="#000000" stroke-width="2px"/>
  <line x1="55"  y1="15" x2="50" y2="10" stroke="#000000" stroke-width="2px"/>
  <line x1="45" y1="15" x2="50" y2="10" stroke="#000000" stroke-width="2px"/>
    
  <!-- draw x-axis, and arrow on the tip -->
  <line x1="50"  y1="550" x2="560" y2="550" stroke="#000000" stroke-width="2px"/>
  <line x1="555" y1="545" x2="560" y2="550" stroke="#000000" stroke-width="2px"/>
  <line x1="555" y1="555" x2="560" y2="550" stroke="#000000" stroke-width="2px"/>

<!-- Draw Segments (refer above notes) -->
  <line x1="51" y1="550.00" x2="550" y2="550.00" stroke="#CCCCCC" stroke-width="2px"/>
  <line x1="51" y1="528.26" x2="550" y2="528.26" stroke="#CCCCCC" stroke-width="2px"/>
  <line x1="51" y1="506.52" x2="550" y2="506.52" stroke="#CCCCCC" stroke-width="2px"/>
  <line x1="51" y1="484.78" x2="550" y2="484.78" stroke="#CCCCCC" stroke-width="2px"/>
  <line x1="51" y1="463.04" x2="550" y2="463.04" stroke="#CCCCCC" stroke-width="2px"/>
  <line x1="51" y1="441.30" x2="550" y2="441.30" stroke="#CCCCCC" stroke-width="2px"/>
  <line x1="51" y1="419.56" x2="550" y2="419.56" stroke="#CCCCCC" stroke-width="2px"/>
  <line x1="51" y1="397.82" x2="550" y2="397.82" stroke="#CCCCCC" stroke-width="2px"/>
  <line x1="51" y1="376.08" x2="550" y2="376.08" stroke="#CCCCCC" stroke-width="2px"/>
  <line x1="51" y1="354.34" x2="550" y2="354.34" stroke="#CCCCCC" stroke-width="2px"/>
  <line x1="51" y1="332.60" x2="550" y2="332.60" stroke="#CCCCCC" stroke-width="2px"/>
  <line x1="51" y1="310.86" x2="550" y2="310.86" stroke="#CCCCCC" stroke-width="2px"/>
  <line x1="51" y1="289.13" x2="550" y2="289.13" stroke="#CCCCCC" stroke-width="2px"/>
  <line x1="51" y1="267.39" x2="550" y2="267.39" stroke="#CCCCCC" stroke-width="2px"/>
  <line x1="51" y1="245.65" x2="550" y2="245.65" stroke="#CCCCCC" stroke-width="2px"/>
  <line x1="51" y1="223.91" x2="550" y2="223.91" stroke="#CCCCCC" stroke-width="2px"/>
  <line x1="51" y1="202.17" x2="550" y2="202.17" stroke="#CCCCCC" stroke-width="2px"/>
  <line x1="51" y1="180.43" x2="550" y2="180.43" stroke="#CCCCCC" stroke-width="2px"/>
  <line x1="51" y1="158.69" x2="550" y2="158.69" stroke="#CCCCCC" stroke-width="2px"/>
  <line x1="51" y1="136.95" x2="550" y2="136.95" stroke="#CCCCCC" stroke-width="2px"/>
  <line x1="51" y1="115.21" x2="550" y2="115.21" stroke="#CCCCCC" stroke-width="2px"/>
  <line x1="51" y1="93.47"  x2="550" y2="93.47"  stroke="#CCCCCC" stroke-width="2px"/>
  <line x1="51" y1="71.73"  x2="550" y2="71.73"  stroke="#CCCCCC" stroke-width="2px"/>
  <line x1="51" y1="50.00"  x2="550" y2="50.00"  stroke="#CCCCCC" stroke-width="2px"/>

<!-- MARKERS -->
  <!-- markers on y-axis for scale -->
  <line x1="45" y1="550.00" x2="50" y2="550.00" stroke="#000000" stroke-width="2px"/>
  <line x1="45" y1="528.26" x2="50" y2="528.26" stroke="#000000" stroke-width="2px"/>
  <line x1="45" y1="506.52" x2="50" y2="506.52" stroke="#000000" stroke-width="2px"/>
  <line x1="45" y1="484.78" x2="50" y2="484.78" stroke="#000000" stroke-width="2px"/>
  <line x1="45" y1="463.04" x2="50" y2="463.04" stroke="#000000" stroke-width="2px"/>
  <line x1="45" y1="441.30" x2="50" y2="441.30" stroke="#000000" stroke-width="2px"/>
  <line x1="45" y1="419.56" x2="50" y2="419.56" stroke="#000000" stroke-width="2px"/>
  <line x1="45" y1="397.82" x2="50" y2="397.82" stroke="#000000" stroke-width="2px"/>
  <line x1="45" y1="376.08" x2="50" y2="376.08" stroke="#000000" stroke-width="2px"/>
  <line x1="45" y1="354.34" x2="50" y2="354.34" stroke="#000000" stroke-width="2px"/>
  <line x1="45" y1="332.60" x2="50" y2="332.60" stroke="#000000" stroke-width="2px"/>
  <line x1="45" y1="310.86" x2="50" y2="310.86" stroke="#000000" stroke-width="2px"/>
  <line x1="45" y1="289.13" x2="50" y2="289.13" stroke="#000000" stroke-width="2px"/>
  <line x1="45" y1="267.39" x2="50" y2="267.39" stroke="#000000" stroke-width="2px"/>
  <line x1="45" y1="245.65" x2="50" y2="245.65" stroke="#000000" stroke-width="2px"/>
  <line x1="45" y1="223.91" x2="50" y2="223.91" stroke="#000000" stroke-width="2px"/>
  <line x1="45" y1="202.17" x2="50" y2="202.17" stroke="#000000" stroke-width="2px"/>
  <line x1="45" y1="180.43" x2="50" y2="180.43" stroke="#000000" stroke-width="2px"/>
  <line x1="45" y1="158.69" x2="50" y2="158.69" stroke="#000000" stroke-width="2px"/>
  <line x1="45" y1="136.95" x2="50" y2="136.95" stroke="#000000" stroke-width="2px"/>
  <line x1="45" y1="115.21" x2="50" y2="115.21" stroke="#000000" stroke-width="2px"/>
  <line x1="45" y1="93.47"  x2="50" y2="93.47"  stroke="#000000" stroke-width="2px"/>
  <line x1="45" y1="71.73"  x2="50" y2="71.73"  stroke="#000000" stroke-width="2px"/>
  <line x1="45" y1="50.00"  x2="50" y2="50.00"  stroke="#000000" stroke-width="2px"/>

  <!-- Graph scale on y-axis -->
  <text x="15" y="550.00" font-family="Arial" font-size="14px" stroke="#0000ff" fill="#0000ff">0</text>
  <text x="15" y="528.26" font-family="Arial" font-size="14px" stroke="#0000ff" fill="#0000ff">1</text>
  <text x="15" y="506.52" font-family="Arial" font-size="14px" stroke="#0000ff" fill="#0000ff">2</text>
  <text x="15" y="484.78" font-family="Arial" font-size="14px" stroke="#0000ff" fill="#0000ff">3</text>
  <text x="15" y="463.04" font-family="Arial" font-size="14px" stroke="#0000ff" fill="#0000ff">4</text>
  <text x="15" y="441.30" font-family="Arial" font-size="14px" stroke="#0000ff" fill="#0000ff">5</text>
  <text x="15" y="419.56" font-family="Arial" font-size="14px" stroke="#0000ff" fill="#0000ff">6</text>
  <text x="15" y="397.82" font-family="Arial" font-size="14px" stroke="#0000ff" fill="#0000ff">7</text>
  <text x="15" y="376.08" font-family="Arial" font-size="14px" stroke="#0000ff" fill="#0000ff">8</text>
  <text x="15" y="354.34" font-family="Arial" font-size="14px" stroke="#0000ff" fill="#0000ff">9</text>
  <text x="15" y="332.60" font-family="Arial" font-size="14px" stroke="#0000ff" fill="#0000ff">10</text>
  <text x="15" y="310.86" font-family="Arial" font-size="14px" stroke="#0000ff" fill="#0000ff">11</text>
  <text x="15" y="289.13" font-family="Arial" font-size="14px" stroke="#0000ff" fill="#0000ff">12</text>
  <text x="15" y="267.39" font-family="Arial" font-size="14px" stroke="#0000ff" fill="#0000ff">13</text>
  <text x="15" y="245.65" font-family="Arial" font-size="14px" stroke="#0000ff" fill="#0000ff">14</text>
  <text x="15" y="223.91" font-family="Arial" font-size="14px" stroke="#0000ff" fill="#0000ff">15</text>
  <text x="15" y="202.17" font-family="Arial" font-size="14px" stroke="#0000ff" fill="#0000ff">16</text>
  <text x="15" y="180.43" font-family="Arial" font-size="14px" stroke="#0000ff" fill="#0000ff">17</text>
  <text x="15" y="158.69" font-family="Arial" font-size="14px" stroke="#0000ff" fill="#0000ff">18</text>
  <text x="15" y="136.95" font-family="Arial" font-size="14px" stroke="#0000ff" fill="#0000ff">19</text>
  <text x="15" y="115.21" font-family="Arial" font-size="14px" stroke="#0000ff" fill="#0000ff">20</text>
  <text x="15" y="93.47"  font-family="Arial" font-size="14px" stroke="#0000ff" fill="#0000ff">21</text>
  <text x="15" y="71.73"  font-family="Arial" font-size="14px" stroke="#0000ff" fill="#0000ff">22</text>
  <text x="15" y="50.00"  font-family="Arial" font-size="14px" stroke="#0000ff" fill="#0000ff">23</text>

<!-- Graph Legend -->
<!--  <text x="50"  y="590" font-family="Arial" font-size="14px" stroke="#ff0000"  > Red:Read Performance (Gbps)  </text>
      <text x="280" y="590" font-family="Arial" font-size="14px" stroke="#0000ff" > Blue:Write Performance (Gbps)</text>
-->

<!-- Variables that hold plot data -->
  <polyline id="CDMA0Line" points="" style="fill:none; stroke:#FF0000; stroke-width:2px; opacity:.8"/>
  <polyline id="CDMA0Line_rd" points="" style="fill:none; stroke:#FF0000; stroke-width:2px; opacity:.8"/>
  <polyline id="CDMA0Line_wr" points="" style="fill:none; stroke:#0000FF; stroke-width:2px; opacity:.8"/>

</svg>

